<?xml version="1.0" standalone="no"?>
<!DOCTYPE svg PUBLIC "-//W3C//DTD SVG 20010904//EN"
 "http://www.w3.org/TR/2001/REC-SVG-20010904/DTD/svg10.dtd">
<svg version="1.0" xmlns="http://www.w3.org/2000/svg" viewBox="0 0 512.000000 512.000000"
 preserveAspectRatio="xMidYMid meet">

<g transform="translate(0.000000,512.000000) scale(0.100000,-0.100000)" stroke="none">
<path d="M2390 5099 c-196 -51 -368 -231 -409 -427 -6 -29 -11 -146 -11 -261
l0 -208 -52 -24 c-113 -52 -261 -161 -379 -278 -213 -213 -337 -443 -399 -740
-16 -75 -23 -161 -30 -396 -21 -664 -103 -1094 -270 -1427 -72 -142 -121 -203
-253 -320 -81 -71 -63 -194 36 -239 40 -17 74 -19 603 -19 l561 0 7 -69 c14
-156 89 -319 200 -438 245 -263 613 -326 931 -160 113 59 255 201 312 312 51
99 81 196 89 286 l7 69 561 0 c529 0 563 2 603 19 99 45 117 168 36 240 -138
122 -185 183 -259 332 -118 235 -199 565 -239 961 -8 85 -19 284 -24 443 -10
315 -22 405 -72 563 -76 235 -182 407 -363 587 -123 123 -234 205 -360 267
l-66 32 0 208 c0 234 -7 282 -57 388 -48 100 -159 213 -254 258 -134 64 -303
80 -449 41z m276 -294 c61 -18 116 -62 152 -123 26 -45 27 -53 30 -215 4 -160
3 -169 -15 -163 -38 11 -191 26 -273 26 -82 0 -235 -15 -273 -26 -18 -6 -19 3
-15 163 3 162 4 170 30 215 33 56 94 106 151 124 57 17 153 17 213 -1z m67
-790 c471 -71 848 -429 952 -905 11 -52 19 -165 25 -366 5 -159 16 -362 25
-450 48 -493 154 -880 319 -1171 l36 -63 -1530 0 -1530 0 36 63 c90 158 158
332 214 549 78 305 115 608 130 1077 9 281 13 319 45 442 76 293 314 579 603
723 195 98 446 136 675 101z m297 -3284 c0 -49 -38 -155 -78 -217 -47 -73
-107 -126 -187 -164 -211 -104 -470 -32 -597 164 -40 62 -78 168 -78 217 l0
29 470 0 470 0 0 -29z"/>
</g>
</svg>
