<?xml version="1.0" standalone="no"?>
<!DOCTYPE svg PUBLIC "-//W3C//DTD SVG 20010904//EN"
 "http://www.w3.org/TR/2001/REC-SVG-20010904/DTD/svg10.dtd">
<svg version="1.0" xmlns="http://www.w3.org/2000/svg" viewBox="0 0 512.000000 512.000000"
 preserveAspectRatio="xMidYMid meet">

<g transform="translate(0.000000,512.000000) scale(0.100000,-0.100000)" stroke="none">
<path d="M2560 4786 c-111 -30 -226 -118 -282 -216 -15 -25 -173 -372 -352
-771 l-326 -726 2 -1326 c3 -1321 3 -1326 24 -1353 11 -15 33 -37 48 -48 27
-21 32 -21 1359 -24 931 -1 1348 1 1385 9 89 18 184 72 250 143 71 76 108 149
122 243 6 37 47 507 92 1043 89 1076 88 1041 29 1165 -51 111 -145 196 -274
248 -51 22 -66 22 -694 27 -628 5 -642 5 -669 26 -15 11 -37 33 -48 48 -20 27
-21 42 -26 499 l-5 472 -33 95 c-18 52 -52 128 -75 169 -48 85 -151 196 -217
234 -90 52 -214 69 -310 43z"/>
<path d="M255 3186 c-41 -18 -83 -69 -90 -109 -3 -18 -4 -622 -3 -1344 3
-1307 3 -1312 24 -1339 11 -15 33 -37 48 -48 27 -21 38 -21 566 -21 528 0 539
0 566 21 15 11 37 33 48 48 21 27 21 30 21 1366 0 1336 0 1339 -21 1366 -11
15 -33 37 -48 48 -27 21 -40 21 -554 23 -423 2 -533 0 -557 -11z"/>
</g>
</svg>
