<?xml version="1.0" standalone="no"?>
<!DOCTYPE svg PUBLIC "-//W3C//DTD SVG 20010904//EN"
 "http://www.w3.org/TR/2001/REC-SVG-20010904/DTD/svg10.dtd">
<svg version="1.0" xmlns="http://www.w3.org/2000/svg" viewBox="0 0 512.000000 512.000000"
 preserveAspectRatio="xMidYMid meet">

<g transform="translate(0.000000,512.000000) scale(0.100000,-0.100000)" stroke="none">
<path d="M78 5099 c-23 -12 -46 -35 -58 -59 -20 -39 -20 -54 -20 -2480 0
-2427 0 -2441 20 -2480 13 -26 34 -47 60 -60 40 -20 46 -20 1953 -17 1901 3
1913 3 2002 24 555 129 953 533 1062 1080 26 132 24 385 -5 520 -57 266 -186
501 -381 693 -190 187 -442 319 -698 366 l-92 16 -3 512 c-3 507 -3 511 -25
546 -32 51 -1312 1325 -1350 1344 -29 14 -151 16 -1230 16 -1173 -1 -1199 -1
-1235 -21z m2254 -873 c3 -587 3 -595 24 -623 12 -15 36 -37 55 -48 33 -19 55
-20 617 -23 l582 -3 0 -413 0 -413 -92 -17 c-181 -33 -381 -118 -543 -232
-153 -107 -313 -292 -406 -468 -111 -212 -153 -382 -153 -626 1 -245 38 -408
142 -612 72 -141 150 -248 264 -360 l89 -88 -1305 0 -1306 0 0 2260 0 2260
1015 0 1015 0 2 -594z m1058 -388 c0 -5 -171 -8 -380 -8 l-380 0 0 387 0 388
380 -380 c209 -209 380 -383 380 -387z m635 -1462 c370 -96 662 -388 762 -761
23 -89 26 -118 26 -260 0 -142 -3 -171 -26 -260 -100 -373 -389 -662 -762
-762 -89 -23 -118 -26 -260 -26 -142 0 -171 3 -260 26 -373 100 -662 389 -762
762 -23 89 -26 118 -26 260 0 142 3 171 26 260 108 403 431 702 844 780 118
22 311 14 438 -19z"/>
<path d="M3717 1896 c-86 -31 -99 -63 -105 -242 l-4 -142 -142 -4 c-119 -3
-148 -7 -176 -24 -97 -56 -97 -202 0 -258 28 -17 57 -21 176 -24 l142 -4 4
-142 c3 -119 7 -148 24 -176 40 -69 136 -94 205 -54 61 36 72 70 77 230 l4
142 142 4 c119 3 148 7 176 24 97 56 97 202 0 258 -28 17 -57 21 -176 24
l-142 4 -4 142 c-3 119 -7 148 -24 176 -35 61 -111 89 -177 66z"/>
</g>
</svg>
